<mxfile host="app.diagrams.net" agent="Mozilla/5.0 (Windows NT 10.0; Win64; x64) AppleWebKit/537.36 (KHTML, like Gecko) Chrome/135.0.0.0 Safari/537.36" version="26.2.12">
  <diagram id="Ht1M8jgEwFfnCIfOTk4-" name="Page-1">
    <mxGraphModel dx="1148" dy="1374" grid="1" gridSize="10" guides="1" tooltips="1" connect="1" arrows="1" fold="1" page="1" pageScale="1" pageWidth="1169" pageHeight="827" math="0" shadow="0">
      <root>
        <mxCell id="0" />
        <mxCell id="1" parent="0" />
        <mxCell id="grd__hBPPNaNkMjHl2yw-64" value="" style="rounded=0;labelPosition=right;verticalLabelPosition=middle;align=left;verticalAlign=middle;whiteSpace=wrap;html=1;fontFamily=Times New Roman;fontSize=16;fontStyle=1;textDirection=ltr;textShadow=0;" parent="1" vertex="1">
          <mxGeometry x="30" y="-540" width="750" height="800" as="geometry" />
        </mxCell>
        <mxCell id="grd__hBPPNaNkMjHl2yw-53" value="VPC" style="sketch=0;outlineConnect=0;html=1;whiteSpace=wrap;fontSize=12;fontStyle=0;shape=mxgraph.aws4.group;grIcon=mxgraph.aws4.group_vpc;strokeColor=#666666;fillColor=#f5f5f5;verticalAlign=top;align=left;spacingLeft=30;fontColor=#333333;dashed=0;" parent="1" vertex="1">
          <mxGeometry x="40" y="-430" width="730" height="680" as="geometry" />
        </mxCell>
        <mxCell id="grd__hBPPNaNkMjHl2yw-1" value="Users" style="sketch=0;aspect=fixed;pointerEvents=1;shadow=0;dashed=0;html=1;strokeColor=none;labelPosition=center;verticalLabelPosition=bottom;verticalAlign=top;align=center;fillColor=#00188D;shape=mxgraph.azure.user;fontStyle=1" parent="1" vertex="1">
          <mxGeometry x="53.43" y="-530" width="47" height="50" as="geometry" />
        </mxCell>
        <mxCell id="grd__hBPPNaNkMjHl2yw-2" value="&lt;b&gt;CloudFront&lt;/b&gt;" style="outlineConnect=0;dashed=0;verticalLabelPosition=bottom;verticalAlign=top;align=center;html=1;shape=mxgraph.aws3.cloudfront;fillColor=#F58536;gradientColor=none;" parent="1" vertex="1">
          <mxGeometry x="230" y="-393.75" width="76.5" height="93" as="geometry" />
        </mxCell>
        <mxCell id="grd__hBPPNaNkMjHl2yw-102" style="edgeStyle=orthogonalEdgeStyle;rounded=0;orthogonalLoop=1;jettySize=auto;html=1;" parent="1" target="grd__hBPPNaNkMjHl2yw-6" edge="1">
          <mxGeometry relative="1" as="geometry">
            <mxPoint x="416" y="-280" as="sourcePoint" />
          </mxGeometry>
        </mxCell>
        <mxCell id="grd__hBPPNaNkMjHl2yw-3" value="&lt;b&gt;Route 53&lt;/b&gt;" style="outlineConnect=0;dashed=0;verticalLabelPosition=bottom;verticalAlign=top;align=center;html=1;shape=mxgraph.aws3.route_53;fillColor=#F58536;gradientColor=none;" parent="1" vertex="1">
          <mxGeometry x="380.42" y="-390" width="70.5" height="85.5" as="geometry" />
        </mxCell>
        <mxCell id="grd__hBPPNaNkMjHl2yw-11" style="edgeStyle=orthogonalEdgeStyle;rounded=0;orthogonalLoop=1;jettySize=auto;html=1;exitX=1;exitY=0.5;exitDx=0;exitDy=0;" parent="1" source="grd__hBPPNaNkMjHl2yw-6" target="grd__hBPPNaNkMjHl2yw-10" edge="1">
          <mxGeometry relative="1" as="geometry" />
        </mxCell>
        <mxCell id="grd__hBPPNaNkMjHl2yw-6" value="Nginx" style="whiteSpace=wrap;html=1;verticalAlign=top;fillColor=#F58536;dashed=0;gradientColor=none;fontStyle=1" parent="1" vertex="1">
          <mxGeometry x="370.67" y="-239.99" width="90" height="27.75" as="geometry" />
        </mxCell>
        <mxCell id="grd__hBPPNaNkMjHl2yw-8" value="" style="edgeStyle=orthogonalEdgeStyle;html=1;endArrow=none;elbow=vertical;startArrow=block;startFill=1;strokeColor=#000000;rounded=0;entryX=0;entryY=0.5;entryDx=0;entryDy=0;" parent="1" source="grd__hBPPNaNkMjHl2yw-9" target="grd__hBPPNaNkMjHl2yw-6" edge="1">
          <mxGeometry width="100" relative="1" as="geometry">
            <mxPoint x="430" y="-183" as="sourcePoint" />
            <mxPoint x="510" y="-183.62" as="targetPoint" />
          </mxGeometry>
        </mxCell>
        <mxCell id="grd__hBPPNaNkMjHl2yw-9" value="&lt;b&gt;IAM Role&lt;/b&gt;" style="outlineConnect=0;dashed=0;verticalLabelPosition=bottom;verticalAlign=top;align=center;html=1;shape=mxgraph.aws3.iam;fillColor=#759C3E;gradientColor=none;" parent="1" vertex="1">
          <mxGeometry x="249.75" y="-265.62" width="42" height="81" as="geometry" />
        </mxCell>
        <mxCell id="grd__hBPPNaNkMjHl2yw-10" value="&lt;b&gt;S3 Bucket&amp;nbsp;&lt;/b&gt;&lt;div&gt;&lt;b&gt;(Invoices/Receipts)&lt;/b&gt;&lt;/div&gt;" style="sketch=0;outlineConnect=0;fontColor=#232F3E;gradientColor=none;fillColor=#7AA116;strokeColor=none;dashed=0;verticalLabelPosition=bottom;verticalAlign=top;align=center;html=1;fontSize=12;fontStyle=0;aspect=fixed;pointerEvents=1;shape=mxgraph.aws4.bucket;" parent="1" vertex="1">
          <mxGeometry x="650" y="-265.62" width="75" height="78" as="geometry" />
        </mxCell>
        <mxCell id="grd__hBPPNaNkMjHl2yw-17" value="" style="endArrow=classic;html=1;rounded=0;entryX=0.29;entryY=0.5;entryDx=0;entryDy=0;entryPerimeter=0;" parent="1" source="grd__hBPPNaNkMjHl2yw-2" target="grd__hBPPNaNkMjHl2yw-3" edge="1">
          <mxGeometry width="50" height="50" relative="1" as="geometry">
            <mxPoint x="271" y="-561" as="sourcePoint" />
            <mxPoint x="310" y="-448" as="targetPoint" />
            <Array as="points" />
          </mxGeometry>
        </mxCell>
        <mxCell id="grd__hBPPNaNkMjHl2yw-40" value="Private subnet" style="points=[[0,0],[0.25,0],[0.5,0],[0.75,0],[1,0],[1,0.25],[1,0.5],[1,0.75],[1,1],[0.75,1],[0.5,1],[0.25,1],[0,1],[0,0.75],[0,0.5],[0,0.25]];outlineConnect=0;html=1;whiteSpace=wrap;fontSize=12;fontStyle=0;container=1;pointerEvents=0;collapsible=0;recursiveResize=0;shape=mxgraph.aws4.group;grIcon=mxgraph.aws4.group_security_group;grStroke=0;strokeColor=#6c8ebf;fillColor=#dae8fc;verticalAlign=top;align=left;spacingLeft=30;dashed=0;" parent="1" vertex="1">
          <mxGeometry x="450.92" y="50" width="303.75" height="184.5" as="geometry" />
        </mxCell>
        <mxCell id="grd__hBPPNaNkMjHl2yw-42" value="&lt;b&gt;Amazon RDS&lt;/b&gt;" style="outlineConnect=0;dashed=0;verticalLabelPosition=bottom;verticalAlign=top;align=center;html=1;shape=mxgraph.aws3.rds;fillColor=#2E73B8;gradientColor=none;fontSize=10;" parent="grd__hBPPNaNkMjHl2yw-40" vertex="1">
          <mxGeometry x="19.080000000000013" y="110" width="59.08" height="55.5" as="geometry" />
        </mxCell>
        <mxCell id="grd__hBPPNaNkMjHl2yw-82" value="Public subnet" style="points=[[0,0],[0.25,0],[0.5,0],[0.75,0],[1,0],[1,0.25],[1,0.5],[1,0.75],[1,1],[0.75,1],[0.5,1],[0.25,1],[0,1],[0,0.75],[0,0.5],[0,0.25]];outlineConnect=0;html=1;whiteSpace=wrap;fontSize=12;fontStyle=0;container=1;pointerEvents=0;collapsible=0;recursiveResize=0;shape=mxgraph.aws4.group;grIcon=mxgraph.aws4.group_security_group;grStroke=0;strokeColor=#82b366;fillColor=#d5e8d4;verticalAlign=top;align=left;spacingLeft=30;dashed=1;" parent="1" vertex="1">
          <mxGeometry x="70" y="-140" width="670" height="150" as="geometry" />
        </mxCell>
        <mxCell id="grd__hBPPNaNkMjHl2yw-13" value="&lt;b&gt;Cloud Watch&lt;/b&gt;" style="outlineConnect=0;dashed=0;verticalLabelPosition=bottom;verticalAlign=top;align=center;html=1;shape=mxgraph.aws3.cloudwatch;fillColor=#759C3E;gradientColor=none;" parent="grd__hBPPNaNkMjHl2yw-82" vertex="1">
          <mxGeometry x="290" y="41.75" width="60.45" height="76.5" as="geometry" />
        </mxCell>
        <mxCell id="grd__hBPPNaNkMjHl2yw-32" value="Private subnet" style="points=[[0,0],[0.25,0],[0.5,0],[0.75,0],[1,0],[1,0.25],[1,0.5],[1,0.75],[1,1],[0.75,1],[0.5,1],[0.25,1],[0,1],[0,0.75],[0,0.5],[0,0.25]];outlineConnect=0;html=1;whiteSpace=wrap;fontSize=12;fontStyle=0;container=1;pointerEvents=0;collapsible=0;recursiveResize=0;shape=mxgraph.aws4.group;grIcon=mxgraph.aws4.group_security_group;grStroke=0;strokeColor=#6c8ebf;fillColor=#dae8fc;verticalAlign=top;align=left;spacingLeft=30;dashed=0;" parent="1" vertex="1">
          <mxGeometry x="61.55" y="50" width="298.45" height="184.5" as="geometry" />
        </mxCell>
        <mxCell id="grd__hBPPNaNkMjHl2yw-35" value="&lt;b&gt;PostgreSQL&lt;/b&gt;" style="image;aspect=fixed;html=1;points=[];align=center;fontSize=10;image=img/lib/azure2/databases/Azure_Database_PostgreSQL_Server.svg;" parent="grd__hBPPNaNkMjHl2yw-32" vertex="1">
          <mxGeometry x="18.45" y="115.37" width="33" height="44" as="geometry" />
        </mxCell>
        <mxCell id="grd__hBPPNaNkMjHl2yw-26" value="&lt;b&gt;Amazon RDS&lt;/b&gt;" style="outlineConnect=0;dashed=0;verticalLabelPosition=bottom;verticalAlign=top;align=center;html=1;shape=mxgraph.aws3.rds;fillColor=#2E73B8;gradientColor=none;fontSize=10;" parent="grd__hBPPNaNkMjHl2yw-32" vertex="1">
          <mxGeometry x="220" y="110" width="60" height="54.75" as="geometry" />
        </mxCell>
        <mxCell id="grd__hBPPNaNkMjHl2yw-87" value="" style="outlineConnect=0;fontColor=#232F3E;gradientColor=none;fillColor=#C925D1;strokeColor=none;dashed=0;verticalLabelPosition=bottom;verticalAlign=top;align=center;html=1;fontSize=12;fontStyle=0;aspect=fixed;pointerEvents=1;shape=mxgraph.aws4.rds_proxy;shadow=0;opacity=30;" parent="grd__hBPPNaNkMjHl2yw-32" vertex="1">
          <mxGeometry x="108.44999999999999" y="39.25" width="50" height="50" as="geometry" />
        </mxCell>
        <mxCell id="grd__hBPPNaNkMjHl2yw-94" value="" style="rounded=0;whiteSpace=wrap;html=1;fillColor=none;dashed=1;" parent="grd__hBPPNaNkMjHl2yw-32" vertex="1">
          <mxGeometry x="98.45" y="29.25" width="491.55" height="70.75" as="geometry" />
        </mxCell>
        <mxCell id="grd__hBPPNaNkMjHl2yw-80" style="edgeStyle=orthogonalEdgeStyle;rounded=0;orthogonalLoop=1;jettySize=auto;html=1;exitX=0.5;exitY=1;exitDx=0;exitDy=0;" parent="1" source="grd__hBPPNaNkMjHl2yw-6" target="grd__hBPPNaNkMjHl2yw-98" edge="1">
          <mxGeometry relative="1" as="geometry">
            <mxPoint x="297.03" y="-204" as="sourcePoint" />
            <mxPoint x="300" y="-55" as="targetPoint" />
            <Array as="points">
              <mxPoint x="416" y="-150" />
              <mxPoint x="195" y="-150" />
            </Array>
          </mxGeometry>
        </mxCell>
        <mxCell id="grd__hBPPNaNkMjHl2yw-81" style="edgeStyle=orthogonalEdgeStyle;rounded=0;orthogonalLoop=1;jettySize=auto;html=1;exitX=0.5;exitY=1;exitDx=0;exitDy=0;" parent="1" source="grd__hBPPNaNkMjHl2yw-6" target="grd__hBPPNaNkMjHl2yw-100" edge="1">
          <mxGeometry relative="1" as="geometry">
            <mxPoint x="297.03" y="-204" as="sourcePoint" />
            <mxPoint x="510" y="-55" as="targetPoint" />
            <Array as="points">
              <mxPoint x="416" y="-150" />
              <mxPoint x="605" y="-150" />
            </Array>
          </mxGeometry>
        </mxCell>
        <mxCell id="grd__hBPPNaNkMjHl2yw-76" value="" style="group" parent="1" vertex="1" connectable="0">
          <mxGeometry x="80" y="-110" width="220" height="110" as="geometry" />
        </mxCell>
        <mxCell id="grd__hBPPNaNkMjHl2yw-46" value="&lt;b&gt;AWS EC2&lt;/b&gt;" style="outlineConnect=0;dashed=0;verticalLabelPosition=bottom;verticalAlign=top;align=center;html=1;shape=mxgraph.aws3.ec2;fillColor=#F58534;gradientColor=none;" parent="grd__hBPPNaNkMjHl2yw-76" vertex="1">
          <mxGeometry x="90" y="20" width="40" height="53" as="geometry" />
        </mxCell>
        <mxCell id="grd__hBPPNaNkMjHl2yw-84" value="&lt;b&gt;FastAPI&lt;/b&gt;" style="aspect=fixed;sketch=0;html=1;dashed=0;whitespace=wrap;verticalLabelPosition=bottom;verticalAlign=top;fillColor=#2875E2;strokeColor=#ffffff;points=[[0.005,0.63,0],[0.1,0.2,0],[0.9,0.2,0],[0.5,0,0],[0.995,0.63,0],[0.72,0.99,0],[0.5,1,0],[0.28,0.99,0]];shape=mxgraph.kubernetes.icon2;prIcon=api" parent="grd__hBPPNaNkMjHl2yw-76" vertex="1">
          <mxGeometry x="170" y="10" width="32.92" height="31.6" as="geometry" />
        </mxCell>
        <mxCell id="grd__hBPPNaNkMjHl2yw-77" value="" style="group" parent="1" vertex="1" connectable="0">
          <mxGeometry x="510" y="-110" width="220" height="110" as="geometry" />
        </mxCell>
        <mxCell id="grd__hBPPNaNkMjHl2yw-78" value="&lt;b&gt;AWS EC2&lt;/b&gt;" style="outlineConnect=0;dashed=0;verticalLabelPosition=bottom;verticalAlign=top;align=center;html=1;shape=mxgraph.aws3.ec2;fillColor=#F58534;gradientColor=none;" parent="grd__hBPPNaNkMjHl2yw-77" vertex="1">
          <mxGeometry x="90" y="20" width="40" height="53" as="geometry" />
        </mxCell>
        <mxCell id="grd__hBPPNaNkMjHl2yw-85" value="&lt;b&gt;FastAPI&lt;/b&gt;" style="aspect=fixed;sketch=0;html=1;dashed=0;whitespace=wrap;verticalLabelPosition=bottom;verticalAlign=top;fillColor=#2875E2;strokeColor=#ffffff;points=[[0.005,0.63,0],[0.1,0.2,0],[0.9,0.2,0],[0.5,0,0],[0.995,0.63,0],[0.72,0.99,0],[0.5,1,0],[0.28,0.99,0]];shape=mxgraph.kubernetes.icon2;prIcon=api" parent="grd__hBPPNaNkMjHl2yw-77" vertex="1">
          <mxGeometry x="170" y="10" width="32.92" height="31.6" as="geometry" />
        </mxCell>
        <mxCell id="grd__hBPPNaNkMjHl2yw-68" value="" style="sketch=0;outlineConnect=0;fontColor=#232F3E;gradientColor=none;fillColor=#C925D1;strokeColor=none;dashed=0;verticalLabelPosition=bottom;verticalAlign=top;align=center;html=1;fontSize=12;fontStyle=0;aspect=fixed;pointerEvents=1;shape=mxgraph.aws4.rds_proxy;" parent="1" vertex="1">
          <mxGeometry x="382.05" y="90" width="50" height="50" as="geometry" />
        </mxCell>
        <mxCell id="grd__hBPPNaNkMjHl2yw-89" value="" style="sketch=0;outlineConnect=0;fontColor=#232F3E;gradientColor=none;fillColor=#C925D1;strokeColor=none;dashed=0;verticalLabelPosition=bottom;verticalAlign=top;align=center;html=1;fontSize=12;fontStyle=0;aspect=fixed;pointerEvents=1;shape=mxgraph.aws4.rds_proxy;opacity=30;" parent="1" vertex="1">
          <mxGeometry x="585" y="90" width="50" height="50" as="geometry" />
        </mxCell>
        <mxCell id="grd__hBPPNaNkMjHl2yw-90" value="&lt;b&gt;PostgreSQL&lt;/b&gt;" style="image;aspect=fixed;html=1;points=[];align=center;fontSize=10;image=img/lib/azure2/databases/Azure_Database_PostgreSQL_Server.svg;" parent="1" vertex="1">
          <mxGeometry x="707" y="166" width="33" height="44" as="geometry" />
        </mxCell>
        <mxCell id="grd__hBPPNaNkMjHl2yw-48" value="Availability zone 2" style="sketch=0;outlineConnect=0;gradientColor=none;html=1;whiteSpace=wrap;fontSize=12;fontStyle=0;shape=mxgraph.aws4.group;grIcon=mxgraph.aws4.group_availability_zone;strokeColor=#545B64;fillColor=none;verticalAlign=top;align=left;spacingLeft=30;fontColor=#545B64;dashed=1;" parent="1" vertex="1">
          <mxGeometry x="442.8" y="20" width="320" height="220" as="geometry" />
        </mxCell>
        <mxCell id="grd__hBPPNaNkMjHl2yw-96" style="edgeStyle=orthogonalEdgeStyle;rounded=0;orthogonalLoop=1;jettySize=auto;html=1;entryX=0;entryY=0.5;entryDx=0;entryDy=0;entryPerimeter=0;" parent="1" edge="1">
          <mxGeometry relative="1" as="geometry">
            <mxPoint x="407.0833333333335" y="139.9368270084458" as="sourcePoint" />
            <mxPoint x="470" y="187.75" as="targetPoint" />
            <Array as="points">
              <mxPoint x="407" y="188" />
            </Array>
          </mxGeometry>
        </mxCell>
        <mxCell id="grd__hBPPNaNkMjHl2yw-97" style="edgeStyle=orthogonalEdgeStyle;rounded=0;orthogonalLoop=1;jettySize=auto;html=1;entryX=1;entryY=0.5;entryDx=0;entryDy=0;entryPerimeter=0;" parent="1" target="grd__hBPPNaNkMjHl2yw-26" edge="1">
          <mxGeometry relative="1" as="geometry">
            <mxPoint x="407" y="140" as="sourcePoint" />
            <mxPoint x="362" y="207" as="targetPoint" />
            <Array as="points">
              <mxPoint x="407" y="140" />
              <mxPoint x="407" y="187" />
            </Array>
          </mxGeometry>
        </mxCell>
        <mxCell id="grd__hBPPNaNkMjHl2yw-49" value="Availability zone 1" style="sketch=0;outlineConnect=0;gradientColor=none;html=1;whiteSpace=wrap;fontSize=12;fontStyle=0;shape=mxgraph.aws4.group;grIcon=mxgraph.aws4.group_availability_zone;strokeColor=#545B64;fillColor=none;verticalAlign=top;align=left;spacingLeft=30;fontColor=#545B64;dashed=1;" parent="1" vertex="1">
          <mxGeometry x="53.43" y="20" width="320" height="220" as="geometry" />
        </mxCell>
        <mxCell id="grd__hBPPNaNkMjHl2yw-98" value="Availability zone 1" style="sketch=0;outlineConnect=0;gradientColor=none;html=1;whiteSpace=wrap;fontSize=12;fontStyle=0;shape=mxgraph.aws4.group;grIcon=mxgraph.aws4.group_availability_zone;strokeColor=#545B64;fillColor=none;verticalAlign=top;align=left;spacingLeft=30;fontColor=#545B64;dashed=1;" parent="1" vertex="1">
          <mxGeometry x="90" y="-110" width="210" height="100" as="geometry" />
        </mxCell>
        <mxCell id="grd__hBPPNaNkMjHl2yw-100" value="Availability zone 2" style="sketch=0;outlineConnect=0;gradientColor=none;html=1;whiteSpace=wrap;fontSize=12;fontStyle=0;shape=mxgraph.aws4.group;grIcon=mxgraph.aws4.group_availability_zone;strokeColor=#545B64;fillColor=none;verticalAlign=top;align=left;spacingLeft=30;fontColor=#545B64;dashed=1;" parent="1" vertex="1">
          <mxGeometry x="480" y="-110" width="250" height="100" as="geometry" />
        </mxCell>
        <mxCell id="grd__hBPPNaNkMjHl2yw-101" style="edgeStyle=orthogonalEdgeStyle;rounded=0;orthogonalLoop=1;jettySize=auto;html=1;entryX=0.5;entryY=0;entryDx=0;entryDy=0;entryPerimeter=0;" parent="1" target="grd__hBPPNaNkMjHl2yw-2" edge="1" source="ViXDnH3GPilMROt3iLvP-1">
          <mxGeometry relative="1" as="geometry">
            <mxPoint x="268" y="-450" as="sourcePoint" />
          </mxGeometry>
        </mxCell>
        <mxCell id="grd__hBPPNaNkMjHl2yw-104" style="edgeStyle=orthogonalEdgeStyle;rounded=0;orthogonalLoop=1;jettySize=auto;html=1;" parent="1" source="grd__hBPPNaNkMjHl2yw-13" target="grd__hBPPNaNkMjHl2yw-100" edge="1">
          <mxGeometry relative="1" as="geometry" />
        </mxCell>
        <mxCell id="grd__hBPPNaNkMjHl2yw-105" style="edgeStyle=orthogonalEdgeStyle;rounded=0;orthogonalLoop=1;jettySize=auto;html=1;" parent="1" source="grd__hBPPNaNkMjHl2yw-13" target="grd__hBPPNaNkMjHl2yw-98" edge="1">
          <mxGeometry relative="1" as="geometry" />
        </mxCell>
        <mxCell id="grd__hBPPNaNkMjHl2yw-106" style="edgeStyle=orthogonalEdgeStyle;rounded=0;orthogonalLoop=1;jettySize=auto;html=1;" parent="1" source="grd__hBPPNaNkMjHl2yw-9" edge="1">
          <mxGeometry relative="1" as="geometry">
            <mxPoint x="70" y="-60" as="targetPoint" />
            <Array as="points">
              <mxPoint x="50" y="-225" />
              <mxPoint x="50" y="-60" />
            </Array>
          </mxGeometry>
        </mxCell>
        <mxCell id="grd__hBPPNaNkMjHl2yw-109" value="&lt;span style=&quot;font-family: &amp;quot;Times New Roman&amp;quot;; font-weight: 700; text-align: left; text-wrap-mode: wrap;&quot;&gt;Inventory Management System&lt;/span&gt;" style="text;html=1;align=center;verticalAlign=middle;resizable=0;points=[];autosize=1;strokeColor=none;fillColor=none;labelBackgroundColor=none;fontSize=20;" parent="1" vertex="1">
          <mxGeometry x="480" y="-490" width="290" height="40" as="geometry" />
        </mxCell>
        <mxCell id="ViXDnH3GPilMROt3iLvP-1" value="Internet&#xa;gateway" style="sketch=0;outlineConnect=0;fontColor=#232F3E;gradientColor=none;strokeColor=#232F3E;fillColor=#ffffff;dashed=0;verticalLabelPosition=bottom;verticalAlign=top;align=center;html=1;fontSize=12;fontStyle=0;aspect=fixed;shape=mxgraph.aws4.resourceIcon;resIcon=mxgraph.aws4.internet_gateway;" vertex="1" parent="1">
          <mxGeometry x="119.99999999999994" y="-453.75" width="60" height="60" as="geometry" />
        </mxCell>
        <mxCell id="ViXDnH3GPilMROt3iLvP-2" style="edgeStyle=orthogonalEdgeStyle;rounded=0;orthogonalLoop=1;jettySize=auto;html=1;exitX=0.87;exitY=0.65;exitDx=0;exitDy=0;exitPerimeter=0;" edge="1" parent="1" source="grd__hBPPNaNkMjHl2yw-1" target="ViXDnH3GPilMROt3iLvP-1">
          <mxGeometry relative="1" as="geometry">
            <mxPoint x="190" y="-414" as="sourcePoint" />
            <mxPoint x="278" y="-384" as="targetPoint" />
          </mxGeometry>
        </mxCell>
      </root>
    </mxGraphModel>
  </diagram>
</mxfile>
